<svg xmlns="http://www.w3.org/2000/svg" viewBox="0 0 800 450">
  <defs>
    <linearGradient id="g1" x1="0%" y1="0%" x2="100%" y2="100%">
      <stop offset="0%" style="stop-color:#1a0533"/>
      <stop offset="100%" style="stop-color:#0f1842"/>
    </linearGradient>
    <linearGradient id="g2" x1="0%" y1="0%" x2="100%" y2="100%">
      <stop offset="0%" style="stop-color:#6366f1"/>
      <stop offset="100%" style="stop-color:#a855f7"/>
    </linearGradient>
  </defs>
  <rect width="800" height="450" fill="url(#g1)"/>
  <!-- Grid lines -->
  <line x1="0" y1="75" x2="800" y2="75" stroke="#6366f133" stroke-width="1"/>
  <line x1="0" y1="150" x2="800" y2="150" stroke="#6366f133" stroke-width="1"/>
  <line x1="0" y1="225" x2="800" y2="225" stroke="#6366f133" stroke-width="1"/>
  <line x1="0" y1="300" x2="800" y2="300" stroke="#6366f133" stroke-width="1"/>
  <line x1="0" y1="375" x2="800" y2="375" stroke="#6366f133" stroke-width="1"/>
  <line x1="100" y1="0" x2="100" y2="450" stroke="#6366f133" stroke-width="1"/>
  <line x1="200" y1="0" x2="200" y2="450" stroke="#6366f133" stroke-width="1"/>
  <line x1="300" y1="0" x2="300" y2="450" stroke="#6366f133" stroke-width="1"/>
  <line x1="400" y1="0" x2="400" y2="450" stroke="#6366f133" stroke-width="1"/>
  <line x1="500" y1="0" x2="500" y2="450" stroke="#6366f133" stroke-width="1"/>
  <line x1="600" y1="0" x2="600" y2="450" stroke="#6366f133" stroke-width="1"/>
  <line x1="700" y1="0" x2="700" y2="450" stroke="#6366f133" stroke-width="1"/>
  <!-- Glow blob -->
  <ellipse cx="400" cy="225" rx="280" ry="160" fill="#6366f1" opacity="0.12"/>
  <!-- Icon -->
  <rect x="336" y="80" width="128" height="128" rx="28" fill="url(#g2)" opacity="0.9"/>
  <text x="400" y="162" font-size="64" text-anchor="middle" fill="white">🍽</text>
  <!-- Title -->
  <text x="400" y="255" font-family="Arial, sans-serif" font-size="32" font-weight="700" text-anchor="middle" fill="white">Restoran POS Pro</text>
  <text x="400" y="290" font-family="Arial, sans-serif" font-size="16" text-anchor="middle" fill="#94a3b8">Restoran ve Kafe Yönetim Sistemi</text>
  <!-- Tag -->
  <rect x="330" y="315" width="140" height="30" rx="15" fill="#6366f133" stroke="#6366f166"/>
  <text x="400" y="335" font-family="monospace" font-size="13" text-anchor="middle" fill="#a5b4fc">PHP + MySQL</text>
</svg>
